<svg xmlns="http://www.w3.org/2000/svg" xmlns:xlink="http://www.w3.org/1999/xlink" width="25" height="32" version="1.1" viewBox="0 0 25 32"><title>32x32</title><desc>Created with Sketch.</desc><defs><path id="path-1" d="M4.98911278,0 L19.9564511,0 C22.711862,0 24.9455639,2.23370188 24.9455639,4.98911278 L24.9455639,19.9564511 C24.9455639,22.711862 22.711862,24.9455639 19.9564511,24.9455639 L4.98911278,24.9455639 C2.23370188,24.9455639 0,22.711862 0,19.9564511 L0,4.98911278 C0,2.23370188 2.23370188,0 4.98911278,0 Z"/></defs><g id="Page-1" fill="none" fill-rule="evenodd" stroke="none" stroke-width="1"><g id="Artboard" transform="translate(-167.000000, -80.000000)"><g id="32x32" transform="translate(167.000000, 80.000000)"><path id="Shape" fill="#2765FF" d="M19.9688444,26.0541754 L19.9689239,30.4705444 C19.9689239,31.2971676 19.2988133,31.9672782 18.4721901,31.9672782 C17.6455668,31.9672782 16.9754408,31.2971676 16.9754408,30.4705444 L16.9754408,26.0541754 L19.9688444,26.0541754 Z M18.4721901,19.9564511 C19.2988133,19.9564511 19.9689239,20.6265617 19.9689239,21.453185 L19.9688444,24.9454837 L16.9754408,24.9454837 L16.9754408,21.453185 C16.9754408,20.6265617 17.6455668,19.9564511 18.4721901,19.9564511 Z"/><path id="Shape" fill="#2765FF" d="M7.99497367,26.0541754 L7.99505323,30.4705444 C7.99505323,31.2971676 7.32494267,31.9672782 6.4983194,31.9672782 C5.67169613,31.9672782 5.00157017,31.2971676 5.00157017,30.4705444 L5.00157017,26.0541754 L7.99497367,26.0541754 Z M6.4983194,19.9564511 C7.32494267,19.9564511 7.99505323,20.6265617 7.99505323,21.453185 L7.99497367,24.9454837 L5.00157017,24.9454837 L5.00157017,21.453185 C5.00157017,20.6265617 5.67169613,19.9564511 6.4983194,19.9564511 Z"/><path id="Rectangle" fill="#2765FF" d="M4.98911278,0 L19.9564511,0 C22.711862,0 24.9455639,2.23370188 24.9455639,4.98911278 L24.9455639,19.9564511 C24.9455639,22.711862 22.711862,24.9455639 19.9564511,24.9455639 L4.98911278,24.9455639 C2.23370188,24.9455639 0,22.711862 0,19.9564511 L0,4.98911278 C0,2.23370188 2.23370188,0 4.98911278,0 Z"/><g id="Shadow-Mask"><mask id="mask-2" fill="#fff"><use xlink:href="#path-1"/></mask><use id="Mask" fill="#2765FF" xlink:href="#path-1"/><polygon id="Rectangle" fill="#0036BC" points="17.878 10.671 30.432 19.07 24.946 27.486 12.75 19.217 17.956 10.8" mask="url(#mask-2)" opacity=".284" style="mix-blend-mode:multiply"/></g><path id="Path-14" fill="#FFF" d="M11.9370194,14.4684271 L7.72536226,14.4684271 C7.06406364,14.4684271 6.52797519,13.9323386 6.52797519,13.27104 C6.52797519,13.0346459 6.59794813,12.803541 6.729076,12.6068492 L11.188497,5.91771763 C11.406811,5.59024669 11.8492571,5.50175747 12.176728,5.72007144 C12.4273119,5.88712739 12.5458251,6.19367423 12.472782,6.48584662 L11.8469084,8.98934075 C11.6865199,9.63089465 12.0765816,10.2809974 12.7181355,10.4413859 C12.8131129,10.4651302 12.910644,10.4771368 13.0085445,10.4771368 L17.2202016,10.4771368 C17.8815003,10.4771368 18.4175887,11.0132253 18.4175887,11.6745239 C18.4175887,11.910918 18.3476158,12.142023 18.2164879,12.3387148 L13.7570669,19.0278463 C13.5387529,19.3553172 13.0963068,19.4438064 12.7688359,19.2254925 C12.518252,19.0584365 12.3997389,18.7518897 12.472782,18.4597173 L13.0986555,15.9562232 C13.259044,15.3146693 12.8689823,14.6645665 12.2274284,14.5041781 C12.132451,14.4804337 12.0349199,14.4684271 11.9370194,14.4684271 Z"/></g></g></g></svg>