<svg xmlns="http://www.w3.org/2000/svg" xmlns:xlink="http://www.w3.org/1999/xlink" width="38" height="48" version="1.1" viewBox="0 0 38 48"><title>48x48</title><desc>Created with Sketch.</desc><defs><path id="path-1" d="M7.48366917,0 L29.9346767,0 C34.067793,0 37.4183459,3.35055282 37.4183459,7.48366917 L37.4183459,29.9346767 C37.4183459,34.067793 34.067793,37.4183459 29.9346767,37.4183459 L7.48366917,37.4183459 C3.35055282,37.4183459 0,34.067793 0,29.9346767 L0,7.48366917 C0,3.35055282 3.35055282,0 7.48366917,0 Z"/></defs><g id="Page-1" fill="none" fill-rule="evenodd" stroke="none" stroke-width="1"><g id="Artboard" transform="translate(-229.000000, -80.000000)"><g id="48x48" transform="translate(229.000000, 80.000000)"><path id="Shape" fill="#2765FF" d="M29.9532665,39.0812632 L29.9533859,45.7058165 C29.9533859,46.9457514 28.94822,47.9509173 27.7082851,47.9509173 C26.4683502,47.9509173 25.4631613,46.9457514 25.4631613,45.7058165 L25.4631613,39.0812632 L29.9532665,39.0812632 Z M27.7082851,29.9346767 C28.94822,29.9346767 29.9533859,30.9398425 29.9533859,32.1797774 L29.9532665,37.4182256 L25.4631613,37.4182256 L25.4631613,32.1797774 C25.4631613,30.9398425 26.4683502,29.9346767 27.7082851,29.9346767 Z"/><path id="Shape" fill="#2765FF" d="M11.9924605,39.0812632 L11.9925798,45.7058165 C11.9925798,46.9457514 10.987414,47.9509173 9.7474791,47.9509173 C8.50754419,47.9509173 7.50235525,46.9457514 7.50235525,45.7058165 L7.50235525,39.0812632 L11.9924605,39.0812632 Z M9.7474791,29.9346767 C10.987414,29.9346767 11.9925798,30.9398425 11.9925798,32.1797774 L11.9924605,37.4182256 L7.50235525,37.4182256 L7.50235525,32.1797774 C7.50235525,30.9398425 8.50754419,29.9346767 9.7474791,29.9346767 Z"/><path id="Rectangle" fill="#2765FF" d="M7.48366917,0 L29.9346767,0 C34.067793,0 37.4183459,3.35055282 37.4183459,7.48366917 L37.4183459,29.9346767 C37.4183459,34.067793 34.067793,37.4183459 29.9346767,37.4183459 L7.48366917,37.4183459 C3.35055282,37.4183459 0,34.067793 0,29.9346767 L0,7.48366917 C0,3.35055282 3.35055282,0 7.48366917,0 Z"/><g id="Shadow-Mask"><mask id="mask-2" fill="#fff"><use xlink:href="#path-1"/></mask><use id="Mask" fill="#2765FF" xlink:href="#path-1"/><polygon id="Rectangle" fill="#0036BC" points="26.816 16.007 45.648 28.605 37.418 41.229 19.125 28.826 26.934 16.201" mask="url(#mask-2)" opacity=".284" style="mix-blend-mode:multiply"/></g><path id="Path-14" fill="#FFF" d="M17.9055291,21.7026406 L11.5880434,21.7026406 C10.5960955,21.7026406 9.79196279,20.8985079 9.79196279,19.90656 C9.79196279,19.5519688 9.8969222,19.2053114 10.093614,18.9102737 L16.7827455,8.87657645 C17.1102165,8.38537004 17.7738856,8.25263621 18.265092,8.58010715 C18.6409679,8.83069108 18.8187376,9.29051134 18.7091729,9.72876992 L17.7703626,13.4840111 C17.5297799,14.446342 18.1148724,15.4214961 19.0772032,15.6620788 C19.2196694,15.6976953 19.365966,15.7157053 19.5128168,15.7157053 L25.8303025,15.7157053 C26.8222504,15.7157053 27.6263831,16.5198379 27.6263831,17.5117859 C27.6263831,17.8663771 27.5214237,18.2130344 27.3247319,18.5080721 L20.6356003,28.5417694 C20.3081294,29.0329758 19.6444603,29.1657097 19.1532539,28.8382387 C18.777378,28.5876548 18.5996083,28.1278345 18.7091729,27.6895759 L19.6479832,23.9343347 C19.8885659,22.9720039 19.3034735,21.9968498 18.3411426,21.7562671 C18.1986764,21.7206505 18.0523799,21.7026406 17.9055291,21.7026406 Z"/></g></g></g></svg>