<svg xmlns="http://www.w3.org/2000/svg" xmlns:xlink="http://www.w3.org/1999/xlink" width="1080" height="365" version="1.1" viewBox="0 0 1080 365"><title>Artboard@1x</title><desc>Created with Sketch.</desc><defs><path id="path-1" d="M31.9615038,0 L127.846015,0 C145.497866,0 159.807519,14.3096527 159.807519,31.9615038 L159.807519,127.846015 C159.807519,145.497866 145.497866,159.807519 127.846015,159.807519 L31.9615038,159.807519 C14.3096527,159.807519 0,145.497866 0,127.846015 L0,31.9615038 C0,14.3096527 14.3096527,0 31.9615038,0 Z"/></defs><g id="Artboard" fill="none" fill-rule="evenodd" stroke="none" stroke-width="1"><rect width="1080" height="365" x="0" y="0" fill="#FFF"/><rect id="Rectangle" width="1080" height="365" x="0" y="0" fill="#1D2329"/><g id="Final-Icon" transform="translate(80.000000, 80.000000)"><path id="Shape" fill="#2765FF" fill-rule="nonzero" d="M127.925409,166.909561 L127.925919,195.201925 C127.925919,200.49748 123.633023,204.790376 118.337468,204.790376 C113.041912,204.790376 108.748918,200.49748 108.748918,195.201925 L108.748918,166.909561 L127.925409,166.909561 Z M118.337468,127.846015 C123.633023,127.846015 127.925919,132.138911 127.925919,137.434466 L127.925409,159.807005 L108.748918,159.807005 L108.748918,137.434466 C108.748918,132.138911 113.041912,127.846015 118.337468,127.846015 Z"/><path id="Shape" fill="#2765FF" fill-rule="nonzero" d="M51.2178001,166.909561 L51.2183098,195.201925 C51.2183098,200.49748 46.925414,204.790376 41.6298586,204.790376 C36.3343033,204.790376 32.0413089,200.49748 32.0413089,195.201925 L32.0413089,166.909561 L51.2178001,166.909561 Z M41.6298586,127.846015 C46.925414,127.846015 51.2183098,132.138911 51.2183098,137.434466 L51.2178001,159.807005 L32.0413089,159.807005 L32.0413089,137.434466 C32.0413089,132.138911 36.3343033,127.846015 41.6298586,127.846015 Z"/><path id="Rectangle" fill="#2765FF" fill-rule="nonzero" d="M31.9615038,0 L127.846015,0 C145.497866,0 159.807519,14.3096527 159.807519,31.9615038 L159.807519,127.846015 C159.807519,145.497866 145.497866,159.807519 127.846015,159.807519 L31.9615038,159.807519 C14.3096527,159.807519 0,145.497866 0,127.846015 L0,31.9615038 C0,14.3096527 14.3096527,0 31.9615038,0 Z"/><g id="Shadow-Mask"><g id="Mask" fill="#2765FF" fill-rule="nonzero"><path id="path-1" d="M31.9615038,0 L127.846015,0 C145.497866,0 159.807519,14.3096527 159.807519,31.9615038 L159.807519,127.846015 C159.807519,145.497866 145.497866,159.807519 127.846015,159.807519 L31.9615038,159.807519 C14.3096527,159.807519 0,145.497866 0,127.846015 L0,31.9615038 C0,14.3096527 14.3096527,0 31.9615038,0 Z"/></g><g id="Rectangle-Clipped"><mask id="mask-2" fill="#fff"><use xlink:href="#path-1"/></mask><polygon style="mix-blend-mode:multiply" id="Rectangle" fill="#0036BC" fill-rule="nonzero" points="114.529 68.362 194.957 122.166 159.808 176.084 81.679 123.111 115.032 69.19" mask="url(#mask-2)" opacity=".284"/></g></g><path id="Path-14" fill="#FFF" fill-rule="nonzero" d="M76.4715307,92.6883609 L49.490602,92.6883609 C45.2541577,92.6883609 41.8198411,89.2540442 41.8198411,85.0176 C41.8198411,83.5032003 42.2681052,82.0226841 43.1081431,80.7626272 L71.6763089,37.9103786 C73.0748826,35.8125178 75.9093031,35.2456338 78.0071636,36.6442076 C79.6124672,37.7144098 80.3716917,39.6782256 79.9037594,41.5499549 L75.8942569,57.5879644 C74.8667686,61.697919 77.365601,65.8626394 81.4755555,66.8901282 C82.0840048,67.0422403 82.7088129,67.1191579 83.3359881,67.1191579 L110.316917,67.1191579 C114.553361,67.1191579 117.987678,70.5534746 117.987678,74.7899188 C117.987678,76.3043185 117.539413,77.7848347 116.699376,79.0448916 L88.1312099,121.89714 C86.7326362,123.995001 83.8982157,124.561885 81.8003552,123.163311 C80.1950516,122.093109 79.4358271,120.129293 79.9037594,118.257564 L83.9132619,102.219554 C84.9407502,98.1095998 82.4419178,93.9448794 78.3319633,92.9173906 C77.723514,92.7652785 77.0987059,92.6883609 76.4715307,92.6883609 Z"/></g><text id="title" fill="#FFF" font-family="Avenir-Medium, Avenir" font-size="56" font-weight="400" letter-spacing=".56"><tspan x="320" y="128">useEventListenerRef</tspan></text><text id="description" fill="#97999A" font-family="AvenirNext-Regular, Avenir Next" font-size="27" font-weight="normal" letter-spacing=".27"><tspan x="320" y="195">A react hook to add an event listener to a ref</tspan></text></g></svg>